<?xml version="1.0" encoding="UTF-8"?>
<svg xmlns="http://www.w3.org/2000/svg" xmlns:xlink="http://www.w3.org/1999/xlink" width="0" height="0">
<symbol id="arrow_back" width="24" height="24" viewBox="0 0 24 24" fill="none">
<path d="M12.0078 4.68652C12.0934 4.68658 12.1668 4.71285 12.249 4.79492C12.3313 4.88086 12.3574 4.95797 12.3574 5.04395C12.3573 5.13078 12.3308 5.20478 12.249 5.28711L5.8877 11.6484H19.2979C19.4194 11.6485 19.4945 11.6838 19.5586 11.7471C19.6207 11.8084 19.6553 11.8801 19.6553 12C19.6553 12.1199 19.6207 12.1916 19.5586 12.2529C19.4945 12.3162 19.4194 12.3515 19.2979 12.3516H5.8877L12.2432 18.707V18.7061C12.3254 18.7885 12.3537 18.8653 12.3545 18.957V18.958C12.355 19.0245 12.3404 19.0829 12.2988 19.1426L12.2471 19.2041C12.1671 19.2851 12.0939 19.3113 12.0049 19.3105C11.9104 19.3096 11.8321 19.2796 11.749 19.1973L4.80078 12.249C4.74762 12.1949 4.72192 12.1527 4.70996 12.124V12.123C4.69485 12.0867 4.68652 12.0466 4.68652 11.999C4.68655 11.9514 4.69516 11.9123 4.70996 11.877V11.876C4.72183 11.8475 4.74729 11.8051 4.80078 11.751L11.751 4.80078C11.8414 4.71356 11.9211 4.68652 12.0078 4.68652Z"/>
</symbol>

<symbol id="arrow_forward" width="24" height="24" viewBox="0 0 24 24" fill="none">
<path d="M11.9951 4.68945C12.0661 4.69012 12.1279 4.70677 12.1895 4.75L12.251 4.80273L19.1992 11.751C19.2524 11.8051 19.2781 11.8473 19.29 11.876V11.877C19.3052 11.9133 19.3135 11.9534 19.3135 12.001C19.3134 12.0486 19.3048 12.0877 19.29 12.123V12.124C19.2782 12.1525 19.2527 12.1948 19.1992 12.249L12.2451 19.1973C12.1538 19.2875 12.0752 19.3135 11.9922 19.3135C11.9115 19.3134 11.8393 19.2889 11.7559 19.2031L11.751 19.1982L11.6992 19.1377C11.6571 19.0781 11.6426 19.02 11.6426 18.9551C11.6426 18.8904 11.6573 18.8328 11.6992 18.7734L11.751 18.7129L18.1123 12.3516H4.70215C4.58005 12.3515 4.50781 12.3164 4.44727 12.2559H4.44629C4.38542 12.195 4.35059 12.122 4.35059 12C4.35059 11.878 4.38542 11.805 4.44629 11.7441H4.44727C4.50782 11.6836 4.58005 11.6485 4.70215 11.6484H18.1123L11.7568 5.29297C11.6955 5.23162 11.6637 5.17322 11.6514 5.1084L11.6455 5.04102C11.6446 4.95107 11.6708 4.87748 11.751 4.79688L11.752 4.7959C11.8321 4.71531 11.9055 4.68868 11.9951 4.68945Z"/>
</symbol>

<symbol id="bookmark" width="24" height="24" viewBox="0 0 24 24" fill="none">
<path d="M12.0001 18.1675L7.23159 20.2075C6.66392 20.4522 6.12517 20.4062 5.61534 20.0697C5.1055 19.7332 4.85059 19.2571 4.85059 18.6412V4.42875C4.85059 3.96708 5.0195 3.56683 5.35734 3.228C5.695 2.889 6.09384 2.7195 6.55384 2.7195H17.4463C17.908 2.7195 18.3083 2.889 18.6471 3.228C18.9861 3.56683 19.1556 3.96708 19.1556 4.42875V18.6412C19.1556 19.2571 18.8997 19.7332 18.3878 20.0697C17.876 20.4062 17.3363 20.4522 16.7686 20.2075L12.0001 18.1675ZM12.0001 16.3452L17.4463 18.6412V4.42875H6.55384V18.6412L12.0001 16.3452ZM12.0001 4.42875H6.55384H17.4463H12.0001Z"/>
</symbol>

<symbol id="chevron_left" width="24" height="24" viewBox="0 0 24 24" fill="none">
<path d="M14.0371 6.64844C14.1379 6.64844 14.2149 6.67885 14.293 6.75684C14.3711 6.83496 14.4014 6.91179 14.4014 7.0127C14.4014 7.1136 14.3711 7.19043 14.293 7.26855L9.58594 11.9756L9.93945 12.3291L14.293 16.6816C14.3707 16.7594 14.3926 16.8265 14.3896 16.9072C14.3861 17.0012 14.3542 17.0822 14.2686 17.168C14.1905 17.246 14.1135 17.2773 14.0127 17.2773C13.9118 17.2773 13.835 17.2461 13.7568 17.168L8.8125 12.2246C8.78534 12.1974 8.76548 12.1732 8.75098 12.1523L8.72168 12.0996C8.70687 12.0641 8.69829 12.0242 8.69824 11.9756C8.69824 11.9513 8.70011 11.9287 8.7041 11.9082L8.72168 11.8506C8.73339 11.8224 8.75834 11.7798 8.8125 11.7256L13.7822 6.75684C13.8602 6.67903 13.9365 6.64851 14.0371 6.64844Z"/>
</symbol>

<symbol id="chevron_right" width="24" height="24" viewBox="0 0 24 24" fill="none">
<path d="M9.38672 6.67285C9.48754 6.67285 9.56452 6.70326 9.64258 6.78125L14.5869 11.7256C14.6408 11.7795 14.666 11.8215 14.6777 11.8496V11.8506C14.6925 11.8861 14.7012 11.9259 14.7012 11.9746C14.7012 12.0233 14.6925 12.0631 14.6777 12.0986V12.0996C14.666 12.1277 14.6408 12.1697 14.5869 12.2236L9.61816 17.1924C9.54039 17.2702 9.47325 17.292 9.39258 17.2891C9.29855 17.2856 9.21769 17.2537 9.13184 17.168C9.05371 17.0898 9.02246 17.013 9.02246 16.9121C9.02246 16.8112 9.05371 16.7344 9.13184 16.6562L13.8135 11.9746L9.10645 7.26758C9.02878 7.18988 9.00684 7.12357 9.00977 7.04297C9.01321 6.9487 9.04578 6.86731 9.13184 6.78125C9.20976 6.70344 9.28613 6.67293 9.38672 6.67285Z"/>
</symbol>

<symbol id="close" width="24" height="24" viewBox="0 0 24 24" fill="none">
<path d="M17.5996 5.925C17.7639 5.925 17.8659 5.97351 17.9463 6.05391C18.0265 6.13422 18.0751 6.2357 18.0752 6.39961C18.0752 6.56382 18.0266 6.6659 17.9463 6.74629L12.6924 12.0002L13.0459 12.3537L17.9463 17.2531C18.0267 17.3335 18.0752 17.4357 18.0752 17.5998C18.0752 17.7641 18.0267 17.8661 17.9463 17.9465C17.8659 18.0269 17.7639 18.0754 17.5996 18.0754C17.4355 18.0754 17.3333 18.0269 17.2529 17.9465L12.3535 13.0461L12 12.6926L6.74609 17.9465C6.66571 18.0268 6.56362 18.0754 6.39941 18.0754C6.23551 18.0753 6.13402 18.0267 6.05371 17.9465C5.97331 17.8661 5.9248 17.7641 5.9248 17.5998C5.92484 17.4357 5.97334 17.3335 6.05371 17.2531L11.3066 12.0002L10.9531 11.6467L6.05371 6.74629C5.97331 6.66589 5.9248 6.56388 5.9248 6.39961C5.92488 6.23557 5.97337 6.13425 6.05371 6.05391C6.13405 5.97357 6.23537 5.92508 6.39941 5.925C6.56368 5.925 6.66569 5.97351 6.74609 6.05391L11.6465 10.9533L12 11.3068L17.2529 6.05391C17.3333 5.97354 17.4355 5.92504 17.5996 5.925Z"/>
</symbol>

<symbol id="communication" width="24" height="24" viewBox="0 0 24 24" fill="none">
<path d="M0.862305 15.9532V15.5267C0.862305 14.5947 1.32547 13.9823 2.2518 13.6895C3.17797 13.3965 3.99872 13.25 4.71405 13.25C5.42922 13.25 6.24989 13.3961 7.17605 13.6882C8.10239 13.9806 8.56556 14.5934 8.56556 15.5267V15.9532H0.862305ZM4.7128 11.9107C4.16897 11.9107 3.7038 11.7167 3.3173 11.3287C2.93064 10.9406 2.7373 10.474 2.7373 9.929C2.7373 9.384 2.93097 8.91816 3.3183 8.5315C3.70564 8.145 4.17122 7.95175 4.71505 7.95175C5.25889 7.95175 5.72405 8.14566 6.11055 8.5335C6.49722 8.9215 6.69056 9.38741 6.69056 9.93125C6.69056 10.4751 6.49689 10.941 6.10955 11.329C5.72222 11.7168 5.25664 11.9107 4.7128 11.9107ZM9.93305 13.4097C9.74172 13.4097 9.58372 13.3498 9.45905 13.23C9.33439 13.1102 9.27206 12.9562 9.27206 12.7682C9.27206 12.6744 9.33439 12.512 9.45905 12.281C9.58839 12.0977 9.69055 11.906 9.76556 11.706C9.84056 11.506 9.87805 11.2975 9.87805 11.0805C9.87805 10.8635 9.84056 10.649 9.76556 10.437C9.69055 10.225 9.58772 10.0377 9.45706 9.875C9.40306 9.80216 9.35872 9.72641 9.32405 9.64775C9.28939 9.56908 9.27206 9.48575 9.27206 9.39775C9.27206 9.20725 9.33456 9.05 9.45956 8.926C9.58456 8.80216 9.74239 8.74025 9.93305 8.74025C10.0172 8.74025 10.1037 8.75375 10.1926 8.78075C10.2814 8.80775 10.3508 8.85458 10.4008 8.92125C10.6921 9.22525 10.9055 9.56358 11.0408 9.93625C11.1761 10.3089 11.2438 10.6905 11.2438 11.081C11.2438 11.4683 11.171 11.8572 11.0253 12.2477C10.8796 12.6384 10.6656 12.9734 10.3831 13.2527C10.3164 13.3194 10.2469 13.3622 10.1746 13.3812C10.1024 13.4002 10.0219 13.4097 9.93305 13.4097ZM11.8371 15.3115C11.6424 15.3115 11.4841 15.2487 11.3623 15.123C11.2406 14.9975 11.1798 14.8387 11.1798 14.6465C11.1798 14.5578 11.196 14.4753 11.2283 14.399C11.2606 14.3225 11.3039 14.2484 11.3581 14.1767C11.7677 13.6972 12.0714 13.1961 12.2691 12.6732C12.4667 12.1504 12.5656 11.6192 12.5656 11.0795C12.5656 10.5398 12.4667 10.0039 12.2691 9.47175C12.0714 8.93941 11.7674 8.43991 11.3571 7.97325C11.3036 7.90225 11.2606 7.8295 11.2283 7.755C11.196 7.68033 11.1798 7.5965 11.1798 7.5035C11.1798 7.30983 11.2422 7.15158 11.3671 7.02875C11.4921 6.90591 11.6501 6.8445 11.8413 6.8445C11.9391 6.8445 12.03 6.86725 12.1138 6.91275C12.1976 6.95825 12.2746 7.01883 12.3446 7.0945C12.8659 7.6945 13.2555 8.33125 13.5133 9.00475C13.7713 9.67825 13.9003 10.3693 13.9003 11.078C13.9003 11.7865 13.7713 12.4775 13.5133 13.151C13.2555 13.8247 12.866 14.4615 12.3448 15.0615C12.2793 15.1448 12.2045 15.2073 12.1203 15.249C12.0363 15.2907 11.9419 15.3115 11.8371 15.3115ZM15.4341 15.9532V15.5267C15.4341 14.5934 15.8972 13.9806 16.8236 13.6882C17.7497 13.3961 18.5704 13.25 19.2856 13.25C20.0009 13.25 20.8216 13.3965 21.7478 13.6895C22.6741 13.9823 23.1373 14.5947 23.1373 15.5267V15.9532H15.4341ZM19.2846 11.9107C18.7407 11.9107 18.2756 11.7167 17.8891 11.3287C17.5024 10.9406 17.3091 10.474 17.3091 9.929C17.3091 9.384 17.5027 8.91816 17.8901 8.5315C18.2774 8.145 18.743 7.95175 19.2868 7.95175C19.8306 7.95175 20.2958 8.14566 20.6823 8.5335C21.069 8.9215 21.2623 9.38741 21.2623 9.93125C21.2623 10.4751 21.0686 10.941 20.6813 11.329C20.294 11.7168 19.8284 11.9107 19.2846 11.9107Z"/>
</symbol>

<symbol id="edit" width="24" height="24" viewBox="0 0 24 24" fill="none">
<path d="M4.54784 19.4462H5.65384L17.1491 7.976L16.0551 6.876L4.54784 18.3522V19.4462ZM3.70234 21.1495C3.45767 21.1495 3.25459 21.0687 3.09309 20.907C2.93142 20.7455 2.85059 20.5424 2.85059 20.2978V18.3772C2.85059 18.1492 2.89725 17.9265 2.99059 17.709C3.08392 17.4913 3.20717 17.3059 3.36034 17.1527L17.2136 3.3185C17.3509 3.17716 17.5163 3.067 17.7096 2.988C17.9029 2.909 18.1036 2.8695 18.3116 2.8695C18.5028 2.8695 18.694 2.909 18.8853 2.988C19.0767 3.067 19.2533 3.17517 19.4153 3.3125L20.7126 4.59175C20.8666 4.75375 20.9789 4.93141 21.0496 5.12475C21.1203 5.31808 21.1556 5.51233 21.1556 5.7075C21.1556 5.90283 21.1161 6.10033 21.0371 6.3C20.9581 6.49967 20.8499 6.67017 20.7126 6.8115L6.85934 20.6397C6.702 20.7929 6.51559 20.9162 6.30009 21.0095C6.08459 21.1028 5.86284 21.1495 5.63484 21.1495H3.70234ZM16.6051 7.42L16.0551 6.876L17.1491 7.976L16.6051 7.42Z"/>
</symbol>

<symbol id="Facebook" width="24" height="24" viewBox="0 0 24 24" fill="none">
<path d="M22 12.3038C22 6.74719 17.5229 2.24268 12 2.24268C6.47715 2.24268 2 6.74719 2 12.3038C2 17.3255 5.65684 21.4879 10.4375 22.2427V15.2121H7.89844V12.3038H10.4375V10.0872C10.4375 7.56564 11.9305 6.1728 14.2146 6.1728C15.3088 6.1728 16.4531 6.36931 16.4531 6.36931V8.84529H15.1922C13.95 8.84529 13.5625 9.6209 13.5625 10.4166V12.3038H16.3359L15.8926 15.2121H13.5625V22.2427C18.3432 21.4879 22 17.3257 22 12.3038Z"/>
</symbol>

<symbol id="Instagram" width="24" height="24" viewBox="0 0 24 24" fill="none">
<path d="M12.0047 4.86619C14.409 4.86619 14.6936 4.87688 15.639 4.91906C16.5181 4.95787 16.9922 5.10522 17.3089 5.2284C17.7273 5.39037 18.0294 5.58722 18.3421 5.89993C18.6587 6.21658 18.8516 6.51522 19.017 6.93367C19.1401 7.25031 19.2875 7.72781 19.3263 8.60351C19.3685 9.55288 19.3792 9.83747 19.3792 12.2385C19.3792 14.6395 19.3685 14.9274 19.3263 15.8734C19.2875 16.7525 19.1401 17.2266 19.017 17.5433C18.855 17.9617 18.6587 18.2637 18.3454 18.5764C18.0288 18.8931 17.7301 19.086 17.3123 19.2513C16.9956 19.3745 16.5176 19.5219 15.6424 19.5607C14.6931 19.6029 14.4085 19.6135 12.0075 19.6135C9.60648 19.6135 9.31852 19.6029 8.37252 19.5607C7.49345 19.5219 7.01932 19.3745 6.70268 19.2513C6.28423 19.0894 5.98221 18.8931 5.66894 18.5798C5.3523 18.2632 5.15938 17.9645 4.99403 17.5466C4.87086 17.23 4.72351 16.7519 4.6847 15.8768C4.64252 14.9274 4.63183 14.6428 4.63183 12.2418C4.63183 9.84084 4.64252 9.55288 4.6847 8.60688C4.72351 7.72781 4.87086 7.25369 4.99403 6.93704C5.15601 6.5186 5.35286 6.21658 5.66557 5.90331C5.98221 5.58666 6.28086 5.39375 6.6993 5.2284C7.01595 5.10522 7.49345 4.95787 8.36914 4.91906C9.31458 4.87688 9.59973 4.86619 12.0041 4.86619H12.0047ZM12.0047 3.24585C9.56148 3.24585 9.25609 3.25653 8.29603 3.29872C7.33991 3.3409 6.68243 3.49556 6.11326 3.71716C5.51934 3.94888 5.01653 4.25484 4.51766 4.75765C4.01485 5.25708 3.70889 5.75932 3.47717 6.34987C3.25558 6.92298 3.10091 7.57652 3.05873 8.53264C3.01655 9.49608 3.00586 9.80147 3.00586 12.2446C3.00586 14.6878 3.01655 14.9932 3.05873 15.9533C3.10091 16.9094 3.25558 17.5669 3.47717 18.136C3.70945 18.73 4.01485 19.2328 4.51766 19.7316C5.01653 20.2305 5.51934 20.5404 6.10988 20.7688C6.68299 20.9904 7.33653 21.145 8.29265 21.1872C9.25215 21.2294 9.55811 21.2401 12.0013 21.2401C14.4445 21.2401 14.7504 21.2294 15.7099 21.1872C16.666 21.145 17.3235 20.9904 17.8927 20.7688C18.4832 20.5404 18.986 20.2311 19.4849 19.7316C19.9838 19.2322 20.2937 18.73 20.522 18.1394C20.7436 17.5663 20.8983 16.9128 20.9405 15.9567C20.9826 14.9972 20.9933 14.6912 20.9933 12.248C20.9933 9.80485 20.9826 9.49945 20.9405 8.53939C20.8983 7.58327 20.7436 6.92579 20.522 6.35662C20.3004 5.75876 19.9945 5.25652 19.4922 4.75708C18.9934 4.25821 18.4905 3.94832 17.9 3.71997C17.3269 3.49838 16.6733 3.34371 15.7172 3.30153C14.7544 3.25597 14.4484 3.24529 12.0052 3.24529L12.0047 3.24585Z"/>
<path d="M12.0044 7.62199C9.45268 7.62199 7.38184 9.69228 7.38184 12.2446C7.38184 14.7968 9.45212 16.8671 12.0044 16.8671C14.5567 16.8671 16.627 14.7968 16.627 12.2446C16.627 9.69284 14.5567 7.62199 12.0044 7.62199ZM12.0044 15.2429C10.3486 15.2429 9.00612 13.9003 9.00612 12.2446C9.00612 10.5888 10.3486 9.24628 12.0044 9.24628C13.6602 9.24628 15.0027 10.5888 15.0027 12.2446C15.0027 13.9003 13.6602 15.2429 12.0044 15.2429Z"/>
<path d="M17.8881 7.43932C17.8881 8.03549 17.405 8.51862 16.8088 8.51862C16.2126 8.51862 15.7295 8.03549 15.7295 7.43932C15.7295 6.84315 16.2126 6.36003 16.8088 6.36003C17.405 6.36003 17.8881 6.84315 17.8881 7.43932Z"/>
</symbol>

<symbol id="keyboard_arrow_down" width="24" height="24" viewBox="0 0 24 24" fill="none">
<path d="M7.08691 9.02344C7.18774 9.02344 7.26471 9.05385 7.34277 9.13184L11.6455 13.459L11.999 13.8145L16.6816 9.13184C16.7593 9.05424 16.8257 9.03227 16.9062 9.03516C17.0005 9.0386 17.0819 9.07117 17.168 9.15723C17.246 9.23531 17.2764 9.31223 17.2764 9.41309C17.2763 9.51371 17.2458 9.59001 17.168 9.66797L12.249 14.5869C12.1949 14.6411 12.1522 14.667 12.124 14.6787C12.0885 14.6935 12.0486 14.7021 12 14.7021C11.9755 14.7021 11.9532 14.6993 11.9326 14.6953L11.875 14.6787L11.8223 14.6484C11.8015 14.634 11.7779 14.6138 11.751 14.5869L6.80664 9.64355C6.7328 9.56972 6.70662 9.50009 6.70996 9.40527C6.71375 9.29797 6.74977 9.2141 6.83203 9.13184C6.90996 9.05403 6.98632 9.02351 7.08691 9.02344Z"/>
</symbol>

<symbol id="keyboard_arrow_up" width="24" height="24" viewBox="0 0 24 24" fill="none">
<path d="M12 8.7041C12.0938 8.7041 12.1699 8.73239 12.25 8.8125L17.1934 13.7568C17.2753 13.8388 17.3018 13.9127 17.3018 14C17.3017 14.0872 17.2753 14.1612 17.1934 14.2432C17.1153 14.3212 17.0383 14.3516 16.9375 14.3516C16.8369 14.3515 16.7605 14.321 16.6826 14.2432L16.6816 14.2422L12.3525 9.93848L11.999 9.58691L7.31836 14.2676C7.24062 14.3453 7.17439 14.3672 7.09375 14.3643C6.99948 14.3608 6.91809 14.3292 6.83203 14.2432C6.75392 14.165 6.72363 14.0882 6.72363 13.9873C6.72364 13.8864 6.75392 13.8096 6.83203 13.7314L11.751 8.8125C11.831 8.7325 11.9063 8.70418 12 8.7041Z"/>
</symbol>

<symbol id="logout" width="24" height="24" viewBox="0 0 24 24" fill="none">
<path d="M4.55384 21.1495C4.09384 21.1495 3.695 20.9806 3.35734 20.6427C3.0195 20.3051 2.85059 19.9062 2.85059 19.4462V4.55375C2.85059 4.09208 3.0195 3.69183 3.35734 3.353C3.695 3.014 4.09384 2.8445 4.55384 2.8445H11.1593C11.3997 2.8445 11.6017 2.92791 11.7653 3.09475C11.929 3.26175 12.0108 3.46583 12.0108 3.707C12.0108 3.94833 11.929 4.14983 11.7653 4.3115C11.6017 4.473 11.3997 4.55375 11.1593 4.55375H4.55384V19.4462H11.1593C11.3997 19.4462 11.6017 19.5285 11.7653 19.693C11.929 19.8575 12.0108 20.0606 12.0108 20.3022C12.0108 20.5439 11.929 20.7455 11.7653 20.907C11.6017 21.0687 11.3997 21.1495 11.1593 21.1495H4.55384ZM17.8918 12.8517H9.81584C9.5755 12.8517 9.3735 12.7694 9.20984 12.6047C9.04617 12.4402 8.96434 12.2372 8.96434 11.9955C8.96434 11.754 9.04617 11.5524 9.20984 11.3907C9.3735 11.2291 9.5755 11.1482 9.81584 11.1482H17.8418L15.9186 9.225C15.7486 9.05416 15.6678 8.85408 15.6761 8.62475C15.6844 8.39525 15.7736 8.1965 15.9436 8.0285C16.1134 7.85666 16.3158 7.77175 16.5508 7.77375C16.7857 7.77575 16.9894 7.86166 17.1621 8.0315L20.5588 11.4282C20.7247 11.5996 20.8076 11.7988 20.8076 12.026C20.8076 12.2532 20.7247 12.4517 20.5588 12.6217L17.1871 15.9935C17.0204 16.1633 16.8223 16.2451 16.5928 16.2387C16.3632 16.2324 16.1602 16.1443 15.9838 15.9745C15.8203 15.8045 15.7375 15.6017 15.7353 15.366C15.7332 15.1302 15.8193 14.9268 15.9936 14.756L17.8918 12.8517Z"/>
</symbol>

<symbol id="menu" width="24" height="24" viewBox="0 0 24 24" fill="none">
<path d="M3.70234 18.2212C3.46184 18.2212 3.25975 18.139 3.09609 17.9745C2.93242 17.81 2.85059 17.6049 2.85059 17.3592C2.85059 17.1176 2.93242 16.9159 3.09609 16.7542C3.25975 16.5927 3.46184 16.512 3.70234 16.512H20.2978C20.5383 16.512 20.7414 16.5942 20.9071 16.7587C21.0728 16.9232 21.1556 17.1263 21.1556 17.368C21.1556 17.6137 21.0728 17.8172 20.9071 17.9787C20.7414 18.1404 20.5383 18.2212 20.2978 18.2212H3.70234ZM3.70234 12.8517C3.46184 12.8517 3.25975 12.7694 3.09609 12.6047C2.93242 12.4402 2.85059 12.2372 2.85059 11.9955C2.85059 11.754 2.93242 11.5524 3.09609 11.3907C3.25975 11.2291 3.46184 11.1482 3.70234 11.1482H20.2978C20.5383 11.1482 20.7414 11.2306 20.9071 11.3952C21.0728 11.5597 21.1556 11.7628 21.1556 12.0045C21.1556 12.246 21.0728 12.4476 20.9071 12.6092C20.7414 12.7709 20.5383 12.8517 20.2978 12.8517H3.70234ZM3.70234 7.488C3.46184 7.488 3.25975 7.40575 3.09609 7.24125C2.93242 7.07675 2.85059 6.87166 2.85059 6.626C2.85059 6.38433 2.93242 6.18275 3.09609 6.02125C3.25975 5.85958 3.46184 5.77875 3.70234 5.77875H20.2978C20.5383 5.77875 20.7414 5.861 20.9071 6.0255C21.0728 6.19 21.1556 6.39308 21.1556 6.63475C21.1556 6.88041 21.0728 7.08408 20.9071 7.24575C20.7414 7.40725 20.5383 7.488 20.2978 7.488H3.70234Z"/>
</symbol>

<symbol id="travel_luggage_and_bags" width="24" height="24" viewBox="0 0 24 24" fill="none">
<path d="M4.85059 19.3212V7.55375C4.85059 7.07958 5.01634 6.67616 5.34784 6.3435C5.67934 6.01083 6.08134 5.8445 6.55384 5.8445H9.05934V2.68975C9.05934 2.44625 9.14884 2.2335 9.32784 2.0515C9.50684 1.86966 9.71825 1.77875 9.96209 1.77875H14.0381C14.2819 1.77875 14.4933 1.86966 14.6723 2.0515C14.8513 2.2335 14.9408 2.44625 14.9408 2.68975V5.8445H17.4463C17.9205 5.8445 18.3239 6.01083 18.6566 6.3435C18.9893 6.67616 19.1556 7.07958 19.1556 7.55375V19.3212C19.1556 19.7937 18.9893 20.1957 18.6566 20.5272C18.3239 20.8587 17.9205 21.0245 17.4463 21.0245V21.4352C17.4463 21.6579 17.3718 21.8446 17.2228 21.9952C17.074 22.1459 16.8865 22.2212 16.6603 22.2212C16.4318 22.2212 16.2358 22.1514 16.0721 22.0117C15.9086 21.8721 15.8428 21.6799 15.8746 21.4352V21.0245H8.12559V21.4352C8.12559 21.6579 8.05117 21.8446 7.90234 21.9952C7.75334 22.1459 7.56584 22.2212 7.33984 22.2212C7.11117 22.2212 6.915 22.1514 6.75134 22.0117C6.58784 21.8721 6.522 21.6799 6.55384 21.4352V21.0245C6.08134 21.0245 5.67934 20.8587 5.34784 20.5272C5.01634 20.1957 4.85059 19.7937 4.85059 19.3212ZM10.6251 5.8445H13.3751V3.3445H10.6251V5.8445ZM12.0001 11.8332C12.9571 11.8332 13.9019 11.7269 14.8346 11.5142C15.7671 11.3014 16.6377 10.9423 17.4463 10.437V7.55375H6.55384V10.438C7.3625 10.9427 8.23317 11.3014 9.16584 11.5142C10.0983 11.7269 11.0431 11.8332 12.0001 11.8332ZM11.2143 13.8217V13.499C10.3802 13.449 9.57109 13.3145 8.78709 13.0955C8.00292 12.8763 7.2585 12.5541 6.55384 12.1287V19.3212H17.4463V12.1227C16.7417 12.5481 15.9973 12.8703 15.2131 13.0895C14.4291 13.3085 13.62 13.445 12.7858 13.499V13.8217C12.7858 14.0444 12.711 14.2311 12.5613 14.3817C12.4115 14.5322 12.2229 14.6075 11.9956 14.6075C11.7684 14.6075 11.5814 14.5331 11.4346 14.3842C11.2878 14.2352 11.2143 14.0477 11.2143 13.8217Z"/>
</symbol>

<symbol id="wand_stars" width="24" height="24" viewBox="0 0 24 24" fill="none">
<path d="M16.3857 12.7218L14.0509 16.4865C13.9176 16.7072 13.7291 16.7925 13.4854 16.7425C13.2417 16.6925 13.0866 16.5488 13.0199 16.3115L12.2009 13.0043L4.64066 20.5278C4.47066 20.7016 4.27175 20.7885 4.04391 20.7885C3.81608 20.7885 3.61716 20.7016 3.44716 20.5278C3.27733 20.3578 3.19241 20.1588 3.19241 19.931C3.19241 19.7032 3.27733 19.5042 3.44716 19.3342L10.9824 11.805L7.66341 10.9858C7.42608 10.9191 7.28341 10.764 7.23541 10.5205C7.18741 10.2768 7.27175 10.0863 7.48841 9.949L11.2532 7.58925L10.9472 3.1875C10.9305 2.9335 11.0357 2.74817 11.2627 2.6315C11.4897 2.51483 11.6968 2.53983 11.8842 2.7065L15.2619 5.54725L19.3574 3.9055C19.5907 3.82217 19.7927 3.86583 19.9634 4.0365C20.1341 4.20717 20.1777 4.40917 20.0944 4.6425L18.4277 8.738L21.2684 12.1217C21.4351 12.3091 21.4642 12.5163 21.3559 12.7433C21.2476 12.9703 21.0664 13.0754 20.8124 13.0588L16.3857 12.7218ZM3.16141 5.999C3.07008 5.91167 3.02441 5.809 3.02441 5.691C3.02441 5.57317 3.07008 5.46858 3.16141 5.37725L4.38316 4.1555C4.4705 4.06817 4.57308 4.0245 4.69091 4.0245C4.80891 4.0245 4.91358 4.06817 5.00491 4.1555L6.19566 5.35225C6.28683 5.44358 6.33241 5.54717 6.33241 5.663C6.33241 5.779 6.28683 5.88267 6.19566 5.974L4.97391 7.19575C4.88258 7.28692 4.77891 7.3325 4.66291 7.3325C4.54708 7.3325 4.4435 7.28692 4.35216 7.19575L3.16141 5.999ZM13.9869 13.5365L15.5259 11.0583L18.4482 11.2773L16.5462 9.037L17.6472 6.33375L14.9439 7.42875L12.6977 5.52675L12.9227 8.449L10.4384 10.007L13.2857 10.7143L13.9869 13.5365ZM18.0259 20.8385L16.8042 19.6228C16.713 19.5314 16.6716 19.4278 16.6799 19.312C16.6882 19.196 16.738 19.0923 16.8292 19.001L18.0259 17.8103C18.1132 17.7189 18.2159 17.6732 18.3339 17.6732C18.4517 17.6732 18.5563 17.7189 18.6477 17.8103L19.8694 19.026C19.9567 19.1173 19.9962 19.221 19.9879 19.337C19.9796 19.4528 19.9317 19.5564 19.8444 19.6478L18.6477 20.8385C18.5563 20.9298 18.4527 20.9755 18.3369 20.9755C18.2209 20.9755 18.1172 20.9298 18.0259 20.8385Z"/>
</symbol>

<symbol id="X" width="24" height="24" viewBox="0 0 24 24" fill="none">
<path d="M17.1761 4.24268H19.9362L13.9061 11.0201L21 20.2427H15.4456L11.0951 14.6493L6.11723 20.2427H3.35544L9.80517 12.9935L3 4.24268H8.69545L12.6279 9.3553L17.1761 4.24268ZM16.2073 18.6181H17.7368L7.86441 5.78196H6.2232L16.2073 18.6181Z"/>
</symbol>

<symbol id="Youtube" width="24" height="24" viewBox="0 0 24 24" fill="none">
<path d="M21.5933 7.203C21.4794 6.7804 21.2568 6.395 20.9477 6.08517C20.6386 5.77533 20.2537 5.55186 19.8313 5.437C18.2653 5.007 12.0003 5 12.0003 5C12.0003 5 5.73633 4.993 4.16933 5.404C3.74725 5.52415 3.36315 5.75078 3.0539 6.06213C2.74464 6.37349 2.52062 6.75912 2.40333 7.182C1.99033 8.748 1.98633 11.996 1.98633 11.996C1.98633 11.996 1.98233 15.26 2.39233 16.81C2.62233 17.667 3.29733 18.344 4.15533 18.575C5.73733 19.005 11.9853 19.012 11.9853 19.012C11.9853 19.012 18.2503 19.019 19.8163 18.609C20.2388 18.4943 20.6241 18.2714 20.934 17.9622C21.2439 17.653 21.4677 17.2682 21.5833 16.846C21.9973 15.281 22.0003 12.034 22.0003 12.034C22.0003 12.034 22.0203 8.769 21.5933 7.203ZM9.99633 15.005L10.0013 9.005L15.2083 12.01L9.99633 15.005Z"/>
</symbol>

</svg>